HIERARCHY
ROOT hip
{
  OFFSET 0 0 0
  CHANNELS 6 Xposition Yposition Zposition Zrotation Yrotation Xrotation
  JOINT abdomen
  {
    OFFSET 0 20.6881 -0.73152
    CHANNELS 3 Zrotation Xrotation Yrotation
    JOINT chest
    {
      OFFSET 0 11.7043 -0.48768
      CHANNELS 3 Zrotation Xrotation Yrotation
      JOINT neck
      {
        OFFSET 0 22.1894 -2.19456
        CHANNELS 3 Zrotation Xrotation Yrotation
        JOINT head
        {
          OFFSET -0.24384 7.07133 1.2192
          CHANNELS 3 Zrotation Xrotation Yrotation
          JOINT leftEye
          {
            OFFSET 4.14528 8.04674 8.04672
            CHANNELS 3 Zrotation Xrotation Yrotation
            End Site
            {
              OFFSET 1 0 0
            }
          }
          JOINT rightEye
          {
            OFFSET -3.6576 8.04674 8.04672
            CHANNELS 3 Zrotation Xrotation Yrotation
            End Site
            {
              OFFSET 1 0 0
            }
          }
        }
      }
      JOINT rCollar
      {
        OFFSET -2.68224 19.2634 -4.8768
        CHANNELS 3 Zrotation Xrotation Yrotation
        JOINT rShldr
        {
          OFFSET -8.77824 -1.95073 1.46304
          CHANNELS 3 Zrotation Xrotation Yrotation
          JOINT rForeArm
          {
            OFFSET -28.1742 -1.7115 0.48768
            CHANNELS 3 Zrotation Xrotation Yrotation
            JOINT rHand
            {
              OFFSET -22.5879 0.773209 7.07136
              CHANNELS 3 Zrotation Xrotation Yrotation
              JOINT rThumb1
              {
                OFFSET -1.2192 -0.487915 3.41376
                CHANNELS 3 Zrotation Xrotation Yrotation
                JOINT rThumb2
                {
                  OFFSET -3.37035 -0.52449 3.41376
                  CHANNELS 3 Zrotation Xrotation Yrotation
                  End Site
                  {
                    OFFSET -1.78271 -1.18214 1.43049
                  }
                }
              }
              JOINT rIndex1
              {
                OFFSET -7.75947 0.938293 5.60832
                CHANNELS 3 Zrotation Xrotation Yrotation
                JOINT rIndex2
                {
                  OFFSET -2.54057 -0.884171 1.56538
                  CHANNELS 3 Zrotation Xrotation Yrotation
                  End Site
                  {
                    OFFSET -1.62519 -0.234802 1.16502
                  }
                }
              }
              JOINT rMid1
              {
                OFFSET -8.24714 1.18213 3.41376
                CHANNELS 3 Zrotation Xrotation Yrotation
                JOINT rMid2
                {
                  OFFSET -3.10165 -0.590103 1.0647
                  CHANNELS 3 Zrotation Xrotation Yrotation
                  End Site
                  {
                    OFFSET -2.48547 -0.328903 0.83742
                  }
                }
              }
              JOINT rRing1
              {
                OFFSET -8.82822 0.546677 1.51678
                CHANNELS 3 Zrotation Xrotation Yrotation
                JOINT rRing2
                {
                  OFFSET -2.60934 -0.819778 -0.0198488
                  CHANNELS 3 Zrotation Xrotation Yrotation
                  End Site
                  {
                    OFFSET -2.33842 -0.294052 0.168128
                  }
                }
              }
              JOINT rPinky1
              {
                OFFSET -8.27202 -0.0477905 -0.4584
                CHANNELS 3 Zrotation Xrotation Yrotation
                JOINT rPinky2
                {
                  OFFSET -1.82734 -0.647385 -0.700984
                  CHANNELS 3 Zrotation Xrotation Yrotation
                  End Site
                  {
                    OFFSET -1.69225 -0.51767 -0.607171
                  }
                }
              }
            }
          }
        }
      }
      JOINT lCollar
      {
        OFFSET 2.68224 19.2634 -4.8768
        CHANNELS 3 Zrotation Xrotation Yrotation
        JOINT lShldr
        {
          OFFSET 8.77824 -1.95073 1.46304
          CHANNELS 3 Zrotation Xrotation Yrotation
          JOINT lForeArm
          {
            OFFSET 28.1742 -1.7115 0.48768
            CHANNELS 3 Zrotation Xrotation Yrotation
            JOINT lHand
            {
              OFFSET 22.5879 0.773209 7.07136
              CHANNELS 3 Zrotation Xrotation Yrotation
              JOINT lThumb1
              {
                OFFSET 1.2192 -0.487915 3.41376
                CHANNELS 3 Zrotation Xrotation Yrotation
                JOINT lThumb2
                {
                  OFFSET 3.37035 -0.52449 3.41376
                  CHANNELS 3 Zrotation Xrotation Yrotation
                  End Site
                  {
                    OFFSET 1.78271 -1.18214 1.43049
                  }
                }
              }
              JOINT lIndex1
              {
                OFFSET 7.75947 0.938293 5.60832
                CHANNELS 3 Zrotation Xrotation Yrotation
                JOINT lIndex2
                {
                  OFFSET 2.54057 -0.884171 1.56538
                  CHANNELS 3 Zrotation Xrotation Yrotation
                  End Site
                  {
                    OFFSET 1.62519 -0.234802 1.16502
                  }
                }
              }
              JOINT lMid1
              {
                OFFSET 8.24714 1.18213 3.41376
                CHANNELS 3 Zrotation Xrotation Yrotation
                JOINT lMid2
                {
                  OFFSET 3.10165 -0.590103 1.0647
                  CHANNELS 3 Zrotation Xrotation Yrotation
                  End Site
                  {
                    OFFSET 2.48547 -0.328903 0.83742
                  }
                }
              }
              JOINT lRing1
              {
                OFFSET 8.82822 0.546677 1.51678
                CHANNELS 3 Zrotation Xrotation Yrotation
                JOINT lRing2
                {
                  OFFSET 2.60934 -0.819778 -0.0198488
                  CHANNELS 3 Zrotation Xrotation Yrotation
                  End Site
                  {
                    OFFSET 2.33842 -0.294052 0.168128
                  }
                }
              }
              JOINT lPinky1
              {
                OFFSET 8.27202 -0.0477905 -0.4584
                CHANNELS 3 Zrotation Xrotation Yrotation
                JOINT lPinky2
                {
                  OFFSET 1.82734 -0.647385 -0.700984
                  CHANNELS 3 Zrotation Xrotation Yrotation
                  End Site
                  {
                    OFFSET 1.69225 -0.51767 -0.607171
                  }
                }
              }
            }
          }
        }
      }
    }
  }
  JOINT rButtock
  {
    OFFSET -8.77824 4.35084 1.2192
    CHANNELS 3 Zrotation Xrotation Yrotation
    JOINT rThigh
    {
      OFFSET 0 -1.70687 -2.19456
      CHANNELS 3 Zrotation Xrotation Yrotation
      JOINT rShin
      {
        OFFSET 0 -36.8199 0.73152
        CHANNELS 3 Zrotation Xrotation Yrotation
        JOINT rFoot
        {
          OFFSET 0.73152 -45.1104 -5.12064
          CHANNELS 3 Zrotation Xrotation Yrotation
          End Site
          {
            OFFSET -1.1221 -3.69964 12.103
          }
        }
      }
    }
  }
  JOINT lButtock
  {
    OFFSET 8.77824 4.35084 1.2192
    CHANNELS 3 Zrotation Xrotation Yrotation
    JOINT lThigh
    {
      OFFSET 0 -1.70687 -2.19456
      CHANNELS 3 Zrotation Xrotation Yrotation
      JOINT lShin
      {
        OFFSET 0 -36.8199 0.73152
        CHANNELS 3 Zrotation Xrotation Yrotation
        JOINT lFoot
        {
          OFFSET -0.73152 -45.1104 -5.12064
          CHANNELS 3 Zrotation Xrotation Yrotation
          End Site
          {
            OFFSET 1.1221 -3.69964 12.103
          }
        }
      }
    }
  }
}
MOTION
Frames:	7
Frame Time:	0.03333
0.0 0.0 0.0 0.0 0.0 0.0 0.0 0.0 0.0 0.0 0.0 0.0 0.0 0.0 0.0 0.0 0.0 0.0 0.0 0.0 0.0 0.0 0.0 0.0 0.0 0.0 0.0 0.0 0.0 0.0 0.0 0.0 0.0 0.0 0.0 0.0 0.0 0.0 0.0 0.0 0.0 0.0 0.0 0.0 0.0 0.0 0.0 0.0 0.0 0.0 0.0 0.0 0.0 0.0 0.0 0.0 0.0 0.0 0.0 0.0 0.0 0.0 0.0 0.0 0.0 0.0 0.0 0.0 0.0 0.0 0.0 0.0 0.0 0.0 0.0 0.0 0.0 0.0 0.0 0.0 0.0 0.0 0.0 0.0 0.0 0.0 0.0 0.0 0.0 0.0 0.0 0.0 0.0 0.0 0.0 0.0 0.0 0.0 0.0 0.0 0.0 0.0 0.0 0.0 0.0 0.0 0.0 0.0 0.0 0.0 0.0 0.0 0.0 0.0 0.0 0.0 0.0 0.0 0.0 0.0 0.0 0.0 0.0 0.0 0.0 0.0 0.0 0.0 0.0 0.0 0.0 0.0
0.050600000000000006 74.3972 0.0211 0.347732 34.862612 3.300024 -4.458448 2.655791 -0.0 1.136522 -6.5775 16.947531 -11.27087 16.500369 -35.908484 20.697925 -10.118919 15.128333 0.00071 0.0 0.0049 0.000146 -0.0 -0.000117 -120.449359 60.638231 124.077092 157.631501 22.696581 126.734212 172.600188 42.991811 -86.138034 -12.033817 32.327123 2.155705 -107.933299 35.148994 63.317654 83.824432 -49.42909 41.953214 2.327025 -3.867516 -1.259192 -65.475172 48.477806 50.842718 -169.088875 -33.247505 145.374983 -2.152377 14.248277 2.911969 -145.122425 2.056364 -179.773319 -76.266743 -77.986239 -97.629826 29.937803 82.262121 7.931154 -153.772833 29.274731 -146.1347 -1.671328 -11.458666 2.379546 -112.233703 54.749718 64.217846 -102.233951 36.392445 -85.661152 168.921819 41.958063 -141.362208 8.202197 7.848837 -1.806904 -119.613855 -79.954932 -45.138591 -10.747202 -19.04794 4.725348 82.725307 48.048945 -66.505354 -23.901866 -61.334179 -1.398339 163.438355 -4.704411 -143.229939 145.111498 -0.667923 178.917638 156.209761 63.714953 -172.357178 139.223747 -4.396613 136.390428 6.504136 -19.032207 9.596225 0.005355 0.000983 0.002678 4.080903 -36.744604 -160.051953 -54.119399 -59.297209 -116.693433 106.361227 71.77136 153.497586 8.1e-05 -0.00167 8.1e-05 -9.048324 -36.165418 -180.0 3.694298 -74.290504 30.137346 46.485491 23.118869 148.610548
0.0783 74.30330000000001 0.012 0.345655 34.958452 3.250047 -4.532458 2.693914 -0.0 1.15857 -6.561935 16.89233 -10.524441 30.652444 -127.033205 23.132731 28.057072 99.687548 0.002013 -0.0 -0.00273 0.002013 -0.0 -0.00273 -155.578255 -3.999658 161.94076 91.924491 65.494834 -136.797 155.441172 33.343823 -75.704174 -19.705094 46.73415 6.778072 -0.441322 0.435419 0.069059 -136.325022 -38.41725 118.148846 -100.824293 37.734918 85.162591 -161.471801 -5.479481 115.29321 -160.67296 -6.66823 143.243888 -175.524984 -39.363383 142.846415 -145.09903 -1.563384 -178.636492 12.245385 38.549352 -4.622899 5.975283 17.925624 5.3581 -147.57725 11.314611 -143.545191 130.420272 54.549484 -134.288282 78.593725 18.057661 -99.071359 163.171895 -10.50783 75.750901 3.859123 13.55863 -0.173061 175.329532 -12.975032 -89.798391 176.908925 -13.260123 -94.986672 153.451401 -21.067934 -121.745342 160.855356 -15.573532 -119.639789 0.057517 0.167863 -0.032456 148.170635 31.622519 -134.532271 0.021316 -1.725222 0.54204 -11.709038 -36.410093 4.394105 152.874001 39.99197 148.059188 147.791832 10.914264 141.636035 179.979405 75.749344 0.014091 -176.245397 38.760264 174.01609 -14.823274 -71.112554 -84.359002 -89.116781 -48.965633 -157.195002 0.000766 -0.000384 0.000383 -9.985112 -35.885542 134.801395 65.135918 -39.128911 135.867106 62.842556 -19.929374 134.486577
0.0893 74.24770000000001 0.0166 0.424154 35.047915 3.269057 -2.247026 0.276573 -91.340059 4.175482 -1.165327 108.243855 -3.131258 13.025979 12.106046 -1.193079 -16.902994 -36.007019 0.002536 0.0 0.000672 0.002536 0.0 0.000672 -157.76048 -21.736602 165.397777 135.438466 13.095624 -145.760874 -136.939506 -62.911096 94.459564 161.680673 -39.391128 138.500291 1.841105 -1.827657 -0.254815 -165.024994 -74.941199 115.240388 -0.688546 1.10824 0.393136 9.752739 2.485844 -0.153788 -89.836227 60.702208 81.262402 -42.137606 58.432531 36.404509 0.000521 0.063906 0.01962 -156.294625 -18.28044 174.001933 7.931467 24.811091 7.002247 -85.544506 -53.827889 -84.590027 142.97359 39.431458 -147.389674 -74.835276 -25.185993 -84.212945 11.312495 -22.184083 -98.107292 3.593819 12.696338 -0.142092 176.92708 -14.532732 -89.658465 86.8677 12.082119 -31.297974 -14.584924 -26.169727 5.605919 -19.176716 -6.992973 2.239166 160.825692 -7.141613 -143.317399 163.510173 -5.437503 -143.034116 70.379709 -72.13002 87.280072 71.695731 -82.428907 97.708461 25.537703 -38.087574 24.598303 -4.360955 3.260122 -0.670103 -0.014988 0.000891 -0.011241 3.366279 -36.849535 163.755886 28.428164 -70.012735 -33.089061 -126.042387 -43.543892 169.405744 -0.002362 -0.001487 -0.003543 -8.61504 -34.000894 -15.159099 -39.471553 60.445255 -61.277569 -157.077085 60.573619 -110.73701
0.10709999999999999 74.21039999999999 0.0031999999999999997 0.393431 35.05718 3.208256 -2.266606 0.297115 -91.846989 4.169481 -1.150269 108.73311 -13.832277 20.954077 -65.310476 27.750577 2.026566 42.91864 0.000118 -0.0 -0.000347 0.000118 -0.0 -0.000347 -78.728527 68.389645 81.80791 -92.772047 18.429533 71.266161 15.495704 54.348847 -131.02387 172.164442 -14.735733 143.893885 -0.544161 0.5361 0.086365 16.909319 -25.749206 -12.033984 -158.40188 -30.155456 122.606237 0.300176 22.403814 -4.348868 -36.037261 51.723017 29.831877 -163.09475 -4.757047 143.252461 -0.000899 0.063588 0.02129 11.382196 -21.550252 -2.607161 0.466048 1.226167 0.429594 36.607311 81.005274 -0.097335 44.925053 -86.287446 66.532659 53.912355 -25.63776 44.402858 174.029146 -6.677801 78.218221 7.842021 25.222746 -1.005132 175.19905 -12.845837 -89.806839 144.189953 9.186268 -74.732683 50.387778 40.825212 -40.025142 155.839333 2.559073 -111.131779 160.674095 -6.667564 -143.245645 128.93437 51.842344 -118.067947 73.163408 -72.142046 90.198335 149.843852 -27.111137 179.892369 -11.40602 38.078221 -9.694748 86.579288 -53.560356 85.393272 179.987445 75.748313 0.00859 -175.989568 40.961102 -0.0 -7.060677 68.574831 -78.664768 30.079003 -5.575961 82.518583 179.990936 75.750688 0.007998 171.656296 40.619519 -51.625684 -68.491473 33.163113 -156.076424 165.864137 44.170335 95.489258
0.13699999999999998 74.1855 -0.0185 0.428576 34.995863 3.232735 -4.665487 2.803548 0.034109 1.08085 -6.607237 16.83004 5.560565 28.8259 136.037108 -19.219513 27.412474 -156.56759 0.004831 -0.0 -0.000408 -0.000846 -0.0 0.002791 -149.850715 22.601182 154.91241 -152.378216 81.65998 97.23443 172.618069 10.749248 -91.683636 -12.983627 34.384147 2.619763 -176.598664 -14.213016 89.690763 -36.186716 -25.905045 2.007546 5.36182 -9.172115 -2.723669 -177.717517 -35.542793 106.132011 -141.479718 35.110819 129.492741 -42.318701 58.333074 36.555607 0.005263 1.770183 0.557917 -155.971314 -7.861048 172.800103 -154.409395 46.073427 -149.05718 -6.409429 -17.356196 -8.598138 -3.268018 -26.755841 5.242305 70.933524 -40.305352 107.748798 176.241773 3.226102 78.530874 8.799488 27.716707 -1.313681 -83.253956 -50.25832 -33.615872 160.817877 -34.497781 -129.899415 14.227268 19.203712 -9.560074 74.850673 48.700294 -56.237067 -9.416488 -29.555419 3.209983 163.093763 -3.898208 -143.229056 145.11902 0.18629 179.185075 -11.718073 24.127495 6.241644 7.145017 -15.707419 6.72731 153.838934 36.287257 148.24882 -179.983416 75.7505 -0.014633 -175.938364 40.875334 -2.599492 -2.576425 74.640003 -149.783174 -146.777459 23.229592 -132.464097 -0.000107 0.001791 0.000138 -8.097298 -36.134465 -147.818328 -47.841763 -55.385592 41.437834 32.235018 -8.243286 90.979787
0.1547 74.1416 -0.0353 0.487392 34.82658 3.281163 -2.35454 0.460696 -90.308955 4.250969 -1.274162 107.279197 -13.50095 19.484441 -58.076759 26.175247 -0.902187 36.316907 -0.000814 0.0 -0.001606 -0.000295 -0.0 0.000705 3.54303 -62.053122 -13.037551 65.803202 1.715003 -29.746585 -135.534668 66.34133 -132.247512 -3.951175 9.766723 -0.385749 4.531303 -4.51393 -0.520582 -86.832217 24.482834 78.390174 19.566665 -35.04083 -5.987473 -6.440225 27.327015 7.378727 12.027803 -37.299456 -3.219075 -154.183686 20.056652 138.670617 -0.061039 -3.508126 -1.106577 7.37425 28.736129 4.460118 -1.203731 -3.047166 -1.117952 3.306654 2.152299 0.659187 -3.205781 -26.010346 5.106427 -106.431893 47.145379 71.83118 -2.001136 -4.714496 -103.300326 8.259242 26.299897 -1.131353 121.364329 30.329986 -71.958598 159.530738 -22.576284 -76.280688 -169.566006 -65.842142 -109.954345 -97.451487 -68.716226 -40.226666 15.423433 32.961461 -11.296443 -42.72844 -69.773789 -17.082669 74.841007 72.96079 -92.828056 95.414314 82.907366 -104.464472 -12.252622 41.424711 -10.282655 146.591034 6.963264 142.209684 179.995849 75.749863 0.004283 -176.17381 38.477715 177.278234 15.470891 -74.072069 78.332802 175.200876 -13.439471 -107.724213 179.976576 75.749862 0.019273 170.32697 38.725439 169.90337 32.839327 -57.063665 -152.917415 -159.095325 -18.872925 -31.759324
